<svg xmlns="http://www.w3.org/2000/svg" xmlns:xlink="http://www.w3.org/1999/xlink" width="500" zoomAndPan="magnify" viewBox="0 0 375 374.999991" height="500" preserveAspectRatio="xMidYMid meet" version="1.0"><defs><g/><clipPath id="68f4e6affd"><path d="M 17.722656 213 L 189 213 L 189 256.628906 L 17.722656 256.628906 Z M 17.722656 213 " clip-rule="nonzero"/></clipPath><clipPath id="76bb5447cd"><path d="M 17.722656 115.628906 L 217 115.628906 L 217 159 L 17.722656 159 Z M 17.722656 115.628906 " clip-rule="nonzero"/></clipPath><clipPath id="fc240c0dcf"><path d="M 181 213 L 357.472656 213 L 357.472656 256.628906 L 181 256.628906 Z M 181 213 " clip-rule="nonzero"/></clipPath><clipPath id="5bac10b9a0"><path d="M 185 116 L 357.472656 116 L 357.472656 159 L 185 159 Z M 185 116 " clip-rule="nonzero"/></clipPath></defs><rect x="-37.5" width="450" fill="#ffffff" y="-37.499999" height="449.999989" fill-opacity="1"/><rect x="-37.5" width="450" fill="#377daa" y="-37.499999" height="449.999989" fill-opacity="1"/><g clip-path="url(#68f4e6affd)"><path fill="#91a6bf" d="M 131.824219 217.007812 C 132.269531 218.03125 132.714844 219.054688 133.164062 220.074219 C 134.492188 223.019531 135.664062 225.949219 137.121094 228.902344 L 141.109375 236.53125 L 141.101562 236.625 L 141.617188 237.527344 C 143.179688 240.253906 144.769531 242.96875 146.597656 245.609375 C 147.511719 246.929688 148.523438 248.214844 149.539062 249.496094 C 150.667969 250.746094 151.746094 252.011719 153.175781 253.140625 C 153.789062 253.726562 154.671875 254.242188 155.46875 254.757812 C 156.121094 255.238281 157.890625 255.867188 158.738281 256.019531 L 159.308594 256.082031 L 159.800781 256.136719 C 160.664062 256.199219 160.050781 256.152344 160.253906 256.164062 L 160.269531 256.164062 L 160.3125 256.15625 L 161.722656 255.960938 C 162.648438 255.777344 163.605469 255.773438 164.464844 255.347656 C 165.335938 254.976562 166.25 254.695312 167.042969 254.21875 L 169.316406 252.648438 L 171.210938 250.742188 C 171.78125 250.074219 172.25 249.339844 172.761719 248.644531 C 173.667969 247.179688 174.40625 245.652344 174.96875 243.933594 C 175.296875 243.078125 175.363281 242.425781 175.574219 241.65625 C 175.796875 240.683594 175.859375 240.105469 176.011719 239.3125 C 176.539062 236.339844 177.152344 233.417969 177.914062 230.554688 C 178.707031 227.714844 179.675781 224.890625 181.335938 222.519531 C 182.136719 221.304688 183.175781 220.292969 184.394531 219.472656 C 185.625 218.679688 187.082031 218.289062 188.609375 218.097656 C 187.113281 218.035156 185.519531 218.171875 184.050781 218.800781 C 182.609375 219.449219 181.261719 220.390625 180.175781 221.5625 C 177.992188 223.917969 176.558594 226.792969 175.320312 229.648438 C 174.078125 232.523438 173.179688 235.488281 172.285156 238.417969 C 172.074219 239.097656 171.835938 240.011719 171.65625 240.496094 C 171.382812 241.167969 171.167969 242.023438 170.855469 242.542969 C 170.320312 243.65625 169.59375 244.8125 168.785156 245.851562 C 168.347656 246.332031 167.960938 246.863281 167.5 247.300781 L 166.070312 248.507812 L 164.5 249.382812 C 163.972656 249.644531 163.386719 249.71875 162.851562 249.917969 C 162.328125 250.171875 161.703125 250.046875 161.140625 250.121094 L 160.421875 250.175781 L 160.167969 250.125 L 159.613281 250.011719 C 159.195312 249.9375 159.355469 249.78125 159.195312 249.726562 C 159.128906 249.667969 159.019531 249.648438 158.761719 249.410156 C 158.324219 249.042969 157.882812 248.792969 157.445312 248.269531 C 156.554688 247.421875 155.714844 246.324219 154.871094 245.265625 C 154.082031 244.113281 153.277344 242.957031 152.539062 241.730469 C 151.0625 239.269531 149.75 236.652344 148.457031 234.019531 L 148.464844 234.058594 L 148.359375 233.832031 L 144.621094 225.480469 C 143.371094 222.6875 142.285156 219.664062 141.117188 216.769531 C 140.671875 215.6875 140.246094 214.589844 139.824219 213.488281 L 17.859375 213.488281 Z M 131.824219 217.007812 " fill-opacity="1" fill-rule="nonzero"/></g><g clip-path="url(#76bb5447cd)"><path fill="#ffffff" d="M 17.859375 158.804688 L 127.789062 158.804688 L 128.277344 154.855469 L 129.152344 150.5625 L 130.371094 146.378906 C 131.386719 143.679688 132.445312 140.972656 133.867188 138.503906 C 135.261719 136.042969 136.886719 133.617188 138.71875 131.835938 C 139.832031 130.785156 141.023438 129.457031 142.070312 128.640625 C 143.152344 127.902344 144.035156 126.90625 145.253906 126.316406 L 146.972656 125.285156 C 147.558594 125.015625 148.152344 124.816406 148.742188 124.5625 C 149.320312 124.265625 149.914062 124.121094 150.507812 124 C 151.101562 123.871094 151.695312 123.644531 152.289062 123.675781 C 154.660156 123.402344 157.066406 123.917969 159.339844 125.140625 C 161.652344 126.414062 163.617188 128.066406 165.550781 130.507812 L 165.394531 130.296875 L 167.800781 133.152344 C 168.621094 134.089844 169.371094 135.0625 170.246094 135.953125 L 173.035156 138.488281 C 173.945312 139.339844 174.871094 140.179688 175.972656 140.839844 L 179.125 142.9375 C 180.242188 143.539062 181.425781 144.039062 182.578125 144.5625 C 183.703125 145.144531 184.945312 145.453125 186.183594 145.761719 C 187.410156 146.082031 188.621094 146.453125 189.894531 146.5 C 191.15625 146.574219 192.394531 146.851562 193.648438 146.734375 C 194.898438 146.644531 196.148438 146.664062 197.375 146.472656 C 198.589844 146.234375 199.804688 146.027344 200.988281 145.714844 C 202.148438 145.324219 203.324219 144.996094 204.449219 144.554688 C 206.683594 143.617188 208.859375 142.589844 210.84375 141.246094 C 212.851562 139.96875 214.726562 138.492188 216.421875 136.863281 C 212.535156 139.507812 208.175781 141.328125 203.78125 142.46875 C 202.679688 142.730469 201.550781 142.882812 200.449219 143.097656 C 199.335938 143.230469 198.210938 143.238281 197.109375 143.339844 C 196.003906 143.386719 194.898438 143.234375 193.804688 143.195312 C 192.707031 143.183594 191.652344 142.789062 190.589844 142.617188 C 189.511719 142.46875 188.515625 142.007812 187.507812 141.625 C 186.5 141.246094 185.492188 140.886719 184.589844 140.261719 C 183.671875 139.691406 182.710938 139.21875 181.816406 138.628906 L 179.292969 136.582031 C 178.414062 135.960938 177.671875 135.148438 176.941406 134.324219 L 174.722656 131.921875 C 174.03125 131.074219 173.433594 130.117188 172.785156 129.226562 L 170.871094 126.53125 L 170.714844 126.320312 C 168.878906 123.65625 166.160156 120.832031 163.003906 118.871094 C 159.832031 116.851562 155.824219 115.636719 151.851562 115.8125 C 147.921875 116 144.082031 117.203125 141.007812 119.117188 C 139.335938 119.90625 137.933594 121.195312 136.398438 122.257812 C 134.933594 123.375 133.972656 124.410156 132.730469 125.488281 C 129.917969 128.058594 127.882812 130.921875 126.027344 133.898438 C 124.132812 136.859375 122.792969 140.070312 121.566406 143.304688 C 121.03125 144.941406 120.519531 146.59375 120.050781 148.246094 C 119.683594 149.921875 119.28125 151.597656 118.957031 153.277344 L 118.683594 155.285156 Z M 17.859375 158.804688 " fill-opacity="1" fill-rule="nonzero"/></g><g clip-path="url(#fc240c0dcf)"><path fill="#ffffff" d="M 357.148438 213.488281 L 234.703125 213.488281 C 232.703125 219.015625 230.664062 224.515625 228.292969 229.816406 C 226.871094 233.050781 225.296875 236.199219 223.667969 239.25 C 222.023438 242.269531 220.183594 245.210938 218.101562 247.480469 C 217.101562 248.59375 215.898438 249.515625 215.207031 249.757812 C 215.074219 249.816406 214.890625 249.839844 214.953125 249.859375 L 213.617188 249.839844 C 213.351562 249.792969 213.089844 249.773438 212.8125 249.75 L 211.839844 249.523438 C 209.28125 248.785156 206.933594 246.640625 205.332031 243.910156 C 204.507812 242.496094 203.949219 241.179688 203.472656 239.445312 L 202.003906 234.195312 C 201.011719 230.679688 200.023438 227.125 198.632812 223.640625 C 197.191406 220.261719 195.542969 216.519531 192.046875 214.34375 C 191.277344 213.890625 190.433594 213.628906 189.582031 213.492188 L 187.105469 213.492188 C 186.847656 213.535156 186.578125 213.554688 186.332031 213.625 C 184.476562 214.058594 182.851562 214.976562 181.347656 215.984375 C 184.507812 214.378906 188.574219 213.488281 191.191406 215.65625 C 193.78125 217.707031 194.960938 221.222656 195.90625 224.566406 C 196.828125 227.976562 197.488281 231.511719 198.109375 235.078125 L 199.046875 240.46875 C 199.332031 242.28125 199.890625 244.457031 200.765625 246.257812 C 202.460938 249.941406 205.339844 253.542969 209.667969 255.367188 L 211.308594 255.9375 C 211.910156 256.089844 212.550781 256.214844 213.179688 256.332031 L 214.5625 256.484375 C 215.539062 256.546875 216.261719 256.425781 217.003906 256.253906 C 219.828125 255.449219 221.523438 253.96875 223.101562 252.566406 C 226.15625 249.675781 228.394531 246.515625 230.476562 243.3125 C 232.550781 240.113281 234.304688 236.785156 235.980469 233.449219 C 238.632812 228.039062 241.066406 222.566406 243.25 217.019531 Z M 357.148438 213.488281 " fill-opacity="1" fill-rule="nonzero"/></g><g clip-path="url(#5bac10b9a0)"><path fill="#91a6bf" d="M 256.335938 155.28125 C 255.859375 152.375 255.164062 149.441406 254.25 146.796875 L 254.128906 146.4375 C 253.210938 144.292969 252.292969 142.148438 251.242188 140.046875 C 250.210938 137.941406 249.117188 135.839844 247.847656 133.820312 C 247.25 132.796875 246.546875 131.816406 245.875 130.824219 C 245.21875 129.824219 244.414062 128.886719 243.699219 127.921875 C 242.128906 126.050781 240.496094 124.210938 238.558594 122.59375 C 234.8125 119.328125 229.859375 116.746094 224.503906 116.5625 C 221.863281 116.417969 219.246094 116.859375 216.832031 117.683594 C 215.628906 118.109375 214.472656 118.625 213.363281 119.234375 C 212.273438 119.824219 211.167969 120.570312 210.265625 121.332031 L 210.101562 121.457031 C 208.304688 123.148438 206.519531 124.855469 204.644531 126.449219 C 202.78125 128.0625 200.851562 129.59375 198.886719 131.074219 C 197.894531 131.792969 196.886719 132.496094 195.847656 133.15625 C 194.816406 133.820312 193.746094 134.410156 192.660156 134.980469 C 191.5625 135.523438 190.441406 136.035156 189.261719 136.367188 C 188.097656 136.699219 186.84375 136.96875 185.625 136.640625 C 186.773438 137.195312 188.132812 137.171875 189.394531 137.054688 C 190.679688 136.941406 191.933594 136.628906 193.175781 136.28125 C 195.648438 135.535156 197.960938 134.417969 200.246094 133.265625 C 204.789062 130.894531 208.976562 127.957031 213.074219 124.941406 L 212.914062 125.066406 C 213.808594 124.488281 214.640625 124.097656 215.5625 123.691406 C 216.476562 123.304688 217.40625 123.003906 218.347656 122.773438 C 220.234375 122.339844 222.144531 122.226562 223.972656 122.523438 C 227.640625 123.070312 230.949219 125.097656 233.757812 127.871094 C 235.183594 129.230469 236.425781 130.867188 237.625 132.519531 C 238.175781 133.398438 238.792969 134.210938 239.296875 135.132812 C 239.816406 136.039062 240.367188 136.921875 240.832031 137.875 C 241.828125 139.722656 242.761719 141.636719 243.605469 143.59375 C 244.449219 145.480469 245.183594 147.4375 245.917969 149.386719 C 246.851562 152.589844 247.308594 155.582031 247.5625 158.804688 L 357.144531 158.804688 Z M 256.335938 155.28125 " fill-opacity="1" fill-rule="nonzero"/></g><g fill="#ffffff" fill-opacity="1"><g transform="translate(140.041988, 186.04386)"><g><path d="M 1.167969 -0.210938 L 1.167969 0 L 11.523438 0 L 11.523438 -0.210938 C 9.820312 -0.210938 8.765625 -1.144531 8.765625 -2.6875 L 8.765625 -17.464844 C 8.765625 -19.007812 9.820312 -19.941406 11.523438 -19.941406 L 11.523438 -20.152344 L 1.167969 -20.152344 L 1.167969 -19.941406 C 2.875 -19.941406 3.925781 -19.007812 3.925781 -17.464844 L 3.925781 -2.6875 C 3.925781 -1.144531 2.875 -0.210938 1.167969 -0.210938 Z M 1.167969 -0.210938 "/></g></g></g><g fill="#ffffff" fill-opacity="1"><g transform="translate(152.730395, 186.04386)"><g><path d="M 11.386719 0 C 12.601562 0 13.746094 -0.210938 14.84375 -0.609375 C 16.925781 -1.214844 19.167969 -1.074219 19.238281 -0.210938 L 19.449219 -0.210938 L 19.449219 -6.5 C 19.496094 -7.972656 20.503906 -8.859375 22.113281 -8.859375 L 22.113281 -9.070312 L 12.039062 -9.070312 L 12.039062 -8.859375 C 13.558594 -8.859375 14.65625 -8.019531 14.679688 -6.476562 L 14.679688 -0.980469 C 13.816406 -0.609375 12.320312 -0.28125 11.386719 -0.28125 C 9.933594 -0.28125 5.9375 -1.238281 5.914062 -10.238281 C 5.9375 -19.238281 9.933594 -20.199219 11.386719 -20.199219 C 11.828125 -20.199219 12.859375 -20.105469 14.074219 -19.730469 C 16.621094 -18.867188 18 -17.230469 18.070312 -14.75 L 18.28125 -14.75 L 18.28125 -20.269531 L 18.070312 -20.269531 C 18 -19.378906 17.042969 -19.214844 14.84375 -19.871094 C 13.746094 -20.269531 12.601562 -20.480469 11.386719 -20.480469 C 8.695312 -20.480469 6.171875 -19.425781 4.230469 -17.554688 C 2.359375 -15.664062 1.308594 -13.371094 1.167969 -10.847656 L 1.167969 -9.679688 C 1.472656 -4.253906 5.984375 0 11.386719 0 Z M 11.386719 0 "/></g></g></g><g fill="#ffffff" fill-opacity="1"><g transform="translate(176.004151, 186.04386)"><g><path d="M 1.167969 -0.210938 L 1.167969 0 L 18.09375 0 L 19.636719 -5.285156 L 19.425781 -5.285156 C 18.304688 -1.894531 15.546875 -0.210938 11.523438 -0.210938 C 9.820312 -0.210938 8.765625 -1.144531 8.765625 -2.6875 L 8.765625 -10.472656 L 12.273438 -10.472656 C 14.425781 -10.402344 14.632812 -8.460938 14.632812 -7.925781 L 14.632812 -7.808594 L 14.84375 -7.808594 L 14.84375 -13.324219 L 14.632812 -13.324219 L 14.632812 -13.207031 C 14.632812 -12.671875 14.425781 -10.730469 12.273438 -10.683594 L 8.765625 -10.683594 L 8.789062 -19.941406 L 10.472656 -19.941406 C 16.128906 -19.941406 17.347656 -16.480469 17.578125 -15.289062 L 17.648438 -14.867188 L 17.835938 -14.960938 L 17.042969 -20.152344 L 1.167969 -20.152344 L 1.167969 -19.941406 C 2.875 -19.941406 3.925781 -19.007812 3.925781 -17.464844 L 3.925781 -2.6875 C 3.925781 -1.144531 2.875 -0.210938 1.167969 -0.210938 Z M 1.167969 -0.210938 "/></g></g></g><g fill="#ffffff" fill-opacity="1"><g transform="translate(196.800983, 186.04386)"><g><path d="M 1.167969 -0.210938 L 1.167969 0 L 11.523438 0 L 11.523438 -0.210938 C 9.820312 -0.210938 8.765625 -1.144531 8.765625 -2.6875 L 8.765625 -17.464844 C 8.765625 -19.007812 9.820312 -19.941406 11.523438 -19.941406 L 11.523438 -20.152344 L 1.167969 -20.152344 L 1.167969 -19.941406 C 2.875 -19.941406 3.925781 -19.007812 3.925781 -17.464844 L 3.925781 -2.6875 C 3.925781 -1.144531 2.875 -0.210938 1.167969 -0.210938 Z M 1.167969 -0.210938 "/></g></g></g><g fill="#ffffff" fill-opacity="1"><g transform="translate(209.48939, 186.04386)"><g><path d="M 1.167969 -0.210938 L 1.167969 0 L 6.6875 0 L 6.6875 -0.210938 L 6.617188 -0.210938 C 6.21875 -0.234375 4.207031 -0.46875 5.984375 -4.371094 L 6.757812 -6.054688 L 14.515625 -6.054688 L 16.058594 -2.664062 C 17.089844 -0.421875 15.382812 -0.234375 14.914062 -0.210938 L 14.796875 -0.210938 L 14.796875 0 L 24.289062 0 L 24.289062 -0.210938 L 24.171875 -0.210938 C 23.703125 -0.234375 21.90625 -0.445312 20.898438 -2.664062 L 12.929688 -20.152344 L 10.519531 -14.820312 L 5.75 -4.371094 C 4.183594 -0.886719 2.359375 -0.304688 1.566406 -0.210938 Z M 14.425781 -6.265625 L 6.847656 -6.265625 L 10.636719 -14.5625 Z M 14.425781 -6.265625 "/></g></g></g><g fill="#ffffff" fill-opacity="1"><g transform="translate(140.835659, 207.3352)"><g><path d="M 3.921875 -5.8125 C 3.492188 -5.988281 3.066406 -6.078125 2.640625 -6.078125 C 1.773438 -6.078125 1.34375 -5.757812 1.34375 -5.125 C 1.34375 -4.84375 1.4375 -4.582031 1.625 -4.34375 C 1.820312 -4.101562 2.0625 -3.890625 2.34375 -3.703125 C 2.625 -3.515625 2.898438 -3.320312 3.171875 -3.125 C 3.453125 -2.925781 3.691406 -2.691406 3.890625 -2.421875 C 4.085938 -2.148438 4.1875 -1.851562 4.1875 -1.53125 C 4.1875 -0.988281 4.003906 -0.578125 3.640625 -0.296875 C 3.273438 -0.0234375 2.773438 0.109375 2.140625 0.109375 C 1.503906 0.109375 0.957031 -0.0546875 0.5 -0.390625 L 0.71875 -0.703125 C 1.144531 -0.421875 1.613281 -0.28125 2.125 -0.28125 C 2.632812 -0.28125 3.023438 -0.382812 3.296875 -0.59375 C 3.578125 -0.800781 3.71875 -1.097656 3.71875 -1.484375 C 3.71875 -1.742188 3.617188 -1.992188 3.421875 -2.234375 C 3.222656 -2.472656 2.984375 -2.6875 2.703125 -2.875 C 2.421875 -3.070312 2.140625 -3.269531 1.859375 -3.46875 C 1.585938 -3.675781 1.351562 -3.921875 1.15625 -4.203125 C 0.957031 -4.484375 0.859375 -4.785156 0.859375 -5.109375 C 0.859375 -5.523438 1.015625 -5.851562 1.328125 -6.09375 C 1.640625 -6.34375 2.0625 -6.46875 2.59375 -6.46875 C 3.125 -6.46875 3.617188 -6.363281 4.078125 -6.15625 Z M 3.921875 -5.8125 "/></g></g></g><g fill="#ffffff" fill-opacity="1"><g transform="translate(145.708392, 207.3352)"><g><path d="M 2.34375 -6 L 0.203125 -6 L 0.203125 -6.375 L 4.9375 -6.375 L 4.9375 -6 L 2.78125 -6 L 2.78125 0 L 2.34375 0 Z M 2.34375 -6 "/></g></g></g><g fill="#ffffff" fill-opacity="1"><g transform="translate(150.839465, 207.3352)"><g><path d="M 5.46875 -0.609375 C 5.0625 -0.128906 4.4375 0.109375 3.59375 0.109375 C 2.757812 0.109375 2.132812 -0.132812 1.71875 -0.625 C 1.3125 -1.113281 1.109375 -1.78125 1.109375 -2.625 L 1.109375 -6.375 L 1.53125 -6.375 L 1.53125 -2.625 C 1.53125 -1.050781 2.21875 -0.265625 3.59375 -0.265625 C 4.96875 -0.265625 5.65625 -1.050781 5.65625 -2.625 L 5.65625 -6.375 L 6.078125 -6.375 L 6.078125 -2.625 C 6.078125 -1.769531 5.875 -1.097656 5.46875 -0.609375 Z M 5.46875 -0.609375 "/></g></g></g><g fill="#ffffff" fill-opacity="1"><g transform="translate(158.02831, 207.3352)"><g><path d="M 3.21875 -0.3125 C 4.050781 -0.3125 4.722656 -0.535156 5.234375 -0.984375 C 5.742188 -1.441406 6 -2.128906 6 -3.046875 C 6 -3.960938 5.710938 -4.6875 5.140625 -5.21875 C 4.566406 -5.757812 3.859375 -6.03125 3.015625 -6.03125 C 2.472656 -6.03125 2.003906 -6.019531 1.609375 -6 L 1.609375 -0.390625 C 1.992188 -0.335938 2.53125 -0.3125 3.21875 -0.3125 Z M 3.015625 -6.4375 C 3.992188 -6.4375 4.8125 -6.128906 5.46875 -5.515625 C 6.125 -4.910156 6.453125 -4.082031 6.453125 -3.03125 C 6.453125 -2.507812 6.367188 -2.046875 6.203125 -1.640625 C 6.035156 -1.234375 5.800781 -0.90625 5.5 -0.65625 C 4.894531 -0.164062 4.132812 0.078125 3.21875 0.078125 C 2.613281 0.078125 1.929688 0.046875 1.171875 -0.015625 L 1.171875 -6.375 C 1.773438 -6.414062 2.390625 -6.4375 3.015625 -6.4375 Z M 3.015625 -6.4375 "/></g></g></g><g fill="#ffffff" fill-opacity="1"><g transform="translate(165.288426, 207.3352)"><g><path d="M 1.171875 0 L 1.171875 -6.375 L 1.609375 -6.375 L 1.609375 0 Z M 1.171875 0 "/></g></g></g><g fill="#ffffff" fill-opacity="1"><g transform="translate(168.067763, 207.3352)"><g><path d="M 1.6875 -0.84375 C 1.09375 -1.476562 0.796875 -2.257812 0.796875 -3.1875 C 0.796875 -4.113281 1.09375 -4.890625 1.6875 -5.515625 C 2.28125 -6.148438 3.023438 -6.46875 3.921875 -6.46875 C 4.828125 -6.46875 5.578125 -6.148438 6.171875 -5.515625 C 6.765625 -4.890625 7.0625 -4.113281 7.0625 -3.1875 C 7.0625 -2.257812 6.765625 -1.476562 6.171875 -0.84375 C 5.578125 -0.207031 4.828125 0.109375 3.921875 0.109375 C 3.023438 0.109375 2.28125 -0.207031 1.6875 -0.84375 Z M 2 -5.25 C 1.507812 -4.695312 1.265625 -4.007812 1.265625 -3.1875 C 1.265625 -2.363281 1.507812 -1.671875 2 -1.109375 C 2.5 -0.554688 3.140625 -0.28125 3.921875 -0.28125 C 4.710938 -0.28125 5.351562 -0.554688 5.84375 -1.109375 C 6.34375 -1.671875 6.59375 -2.363281 6.59375 -3.1875 C 6.59375 -4.007812 6.34375 -4.695312 5.84375 -5.25 C 5.351562 -5.800781 4.710938 -6.078125 3.921875 -6.078125 C 3.140625 -6.078125 2.5 -5.800781 2 -5.25 Z M 2 -5.25 "/></g></g></g><g fill="#ffffff" fill-opacity="1"><g transform="translate(175.933622, 207.3352)"><g/></g></g><g fill="#ffffff" fill-opacity="1"><g transform="translate(179.140548, 207.3352)"><g><path d="M 3.21875 -0.3125 C 4.050781 -0.3125 4.722656 -0.535156 5.234375 -0.984375 C 5.742188 -1.441406 6 -2.128906 6 -3.046875 C 6 -3.960938 5.710938 -4.6875 5.140625 -5.21875 C 4.566406 -5.757812 3.859375 -6.03125 3.015625 -6.03125 C 2.472656 -6.03125 2.003906 -6.019531 1.609375 -6 L 1.609375 -0.390625 C 1.992188 -0.335938 2.53125 -0.3125 3.21875 -0.3125 Z M 3.015625 -6.4375 C 3.992188 -6.4375 4.8125 -6.128906 5.46875 -5.515625 C 6.125 -4.910156 6.453125 -4.082031 6.453125 -3.03125 C 6.453125 -2.507812 6.367188 -2.046875 6.203125 -1.640625 C 6.035156 -1.234375 5.800781 -0.90625 5.5 -0.65625 C 4.894531 -0.164062 4.132812 0.078125 3.21875 0.078125 C 2.613281 0.078125 1.929688 0.046875 1.171875 -0.015625 L 1.171875 -6.375 C 1.773438 -6.414062 2.390625 -6.4375 3.015625 -6.4375 Z M 3.015625 -6.4375 "/></g></g></g><g fill="#ffffff" fill-opacity="1"><g transform="translate(186.400664, 207.3352)"><g><path d="M 1.171875 0 L 1.171875 -6.375 L 4.125 -6.375 L 4.125 -6 L 1.609375 -6 L 1.609375 -3.65625 L 3.890625 -3.65625 L 3.890625 -3.28125 L 1.609375 -3.28125 L 1.609375 -0.375 L 4.234375 -0.375 L 4.234375 0 Z M 1.171875 0 "/></g></g></g><g fill="#ffffff" fill-opacity="1"><g transform="translate(191.166503, 207.3352)"><g><path d="M 1.578125 -5.359375 L 1.609375 -4.59375 L 1.609375 0 L 1.171875 0 L 1.171875 -6.421875 L 1.375 -6.421875 L 5.5625 -1.578125 C 5.851562 -1.242188 6.070312 -0.976562 6.21875 -0.78125 C 6.195312 -1.0625 6.1875 -1.382812 6.1875 -1.75 L 6.1875 -6.375 L 6.625 -6.375 L 6.625 0.046875 L 6.421875 0.046875 L 2.140625 -4.875 C 1.847656 -5.207031 1.660156 -5.429688 1.578125 -5.546875 Z M 1.578125 -5.359375 "/></g></g></g><g fill="#ffffff" fill-opacity="1"><g transform="translate(198.961102, 207.3352)"><g><path d="M 2.34375 -6 L 0.203125 -6 L 0.203125 -6.375 L 4.9375 -6.375 L 4.9375 -6 L 2.78125 -6 L 2.78125 0 L 2.34375 0 Z M 2.34375 -6 "/></g></g></g><g fill="#ffffff" fill-opacity="1"><g transform="translate(204.092175, 207.3352)"><g><path d="M 1.171875 0 L 1.171875 -6.375 L 1.609375 -6.375 L 1.609375 0 Z M 1.171875 0 "/></g></g></g><g fill="#ffffff" fill-opacity="1"><g transform="translate(206.871511, 207.3352)"><g><path d="M 3.921875 -5.8125 C 3.492188 -5.988281 3.066406 -6.078125 2.640625 -6.078125 C 1.773438 -6.078125 1.34375 -5.757812 1.34375 -5.125 C 1.34375 -4.84375 1.4375 -4.582031 1.625 -4.34375 C 1.820312 -4.101562 2.0625 -3.890625 2.34375 -3.703125 C 2.625 -3.515625 2.898438 -3.320312 3.171875 -3.125 C 3.453125 -2.925781 3.691406 -2.691406 3.890625 -2.421875 C 4.085938 -2.148438 4.1875 -1.851562 4.1875 -1.53125 C 4.1875 -0.988281 4.003906 -0.578125 3.640625 -0.296875 C 3.273438 -0.0234375 2.773438 0.109375 2.140625 0.109375 C 1.503906 0.109375 0.957031 -0.0546875 0.5 -0.390625 L 0.71875 -0.703125 C 1.144531 -0.421875 1.613281 -0.28125 2.125 -0.28125 C 2.632812 -0.28125 3.023438 -0.382812 3.296875 -0.59375 C 3.578125 -0.800781 3.71875 -1.097656 3.71875 -1.484375 C 3.71875 -1.742188 3.617188 -1.992188 3.421875 -2.234375 C 3.222656 -2.472656 2.984375 -2.6875 2.703125 -2.875 C 2.421875 -3.070312 2.140625 -3.269531 1.859375 -3.46875 C 1.585938 -3.675781 1.351562 -3.921875 1.15625 -4.203125 C 0.957031 -4.484375 0.859375 -4.785156 0.859375 -5.109375 C 0.859375 -5.523438 1.015625 -5.851562 1.328125 -6.09375 C 1.640625 -6.34375 2.0625 -6.46875 2.59375 -6.46875 C 3.125 -6.46875 3.617188 -6.363281 4.078125 -6.15625 Z M 3.921875 -5.8125 "/></g></g></g><g fill="#ffffff" fill-opacity="1"><g transform="translate(211.744245, 207.3352)"><g><path d="M 2.34375 -6 L 0.203125 -6 L 0.203125 -6.375 L 4.9375 -6.375 L 4.9375 -6 L 2.78125 -6 L 2.78125 0 L 2.34375 0 Z M 2.34375 -6 "/></g></g></g><g fill="#ffffff" fill-opacity="1"><g transform="translate(216.875317, 207.3352)"><g><path d="M 1.171875 0 L 1.171875 -6.375 L 1.609375 -6.375 L 1.609375 0 Z M 1.171875 0 "/></g></g></g><g fill="#ffffff" fill-opacity="1"><g transform="translate(219.654653, 207.3352)"><g><path d="M 4.1875 0.109375 C 3.257812 0.109375 2.460938 -0.207031 1.796875 -0.84375 C 1.128906 -1.476562 0.796875 -2.257812 0.796875 -3.1875 C 0.796875 -4.113281 1.085938 -4.890625 1.671875 -5.515625 C 2.253906 -6.148438 3 -6.46875 3.90625 -6.46875 C 4.625 -6.46875 5.347656 -6.351562 6.078125 -6.125 L 5.953125 -5.765625 C 5.242188 -5.972656 4.5625 -6.078125 3.90625 -6.078125 C 3.132812 -6.078125 2.5 -5.796875 2 -5.234375 C 1.507812 -4.679688 1.265625 -4 1.265625 -3.1875 C 1.265625 -2.382812 1.550781 -1.695312 2.125 -1.125 C 2.695312 -0.5625 3.382812 -0.28125 4.1875 -0.28125 C 4.882812 -0.28125 5.488281 -0.390625 6 -0.609375 L 6.140625 -0.296875 C 5.910156 -0.171875 5.613281 -0.0703125 5.25 0 C 4.882812 0.0703125 4.53125 0.109375 4.1875 0.109375 Z M 4.1875 0.109375 "/></g></g></g><g fill="#ffffff" fill-opacity="1"><g transform="translate(226.291197, 207.3352)"><g><path d="M 1.6875 -0.84375 C 1.09375 -1.476562 0.796875 -2.257812 0.796875 -3.1875 C 0.796875 -4.113281 1.09375 -4.890625 1.6875 -5.515625 C 2.28125 -6.148438 3.023438 -6.46875 3.921875 -6.46875 C 4.828125 -6.46875 5.578125 -6.148438 6.171875 -5.515625 C 6.765625 -4.890625 7.0625 -4.113281 7.0625 -3.1875 C 7.0625 -2.257812 6.765625 -1.476562 6.171875 -0.84375 C 5.578125 -0.207031 4.828125 0.109375 3.921875 0.109375 C 3.023438 0.109375 2.28125 -0.207031 1.6875 -0.84375 Z M 2 -5.25 C 1.507812 -4.695312 1.265625 -4.007812 1.265625 -3.1875 C 1.265625 -2.363281 1.507812 -1.671875 2 -1.109375 C 2.5 -0.554688 3.140625 -0.28125 3.921875 -0.28125 C 4.710938 -0.28125 5.351562 -0.554688 5.84375 -1.109375 C 6.34375 -1.671875 6.59375 -2.363281 6.59375 -3.1875 C 6.59375 -4.007812 6.34375 -4.695312 5.84375 -5.25 C 5.351562 -5.800781 4.710938 -6.078125 3.921875 -6.078125 C 3.140625 -6.078125 2.5 -5.800781 2 -5.25 Z M 2 -5.25 "/></g></g></g></svg>